<mxfile host="65bd71144e">
    <diagram id="9XKktiYxVYKOyOVwgKtO" name="Docker">
        <mxGraphModel dx="2008" dy="755" grid="1" gridSize="10" guides="1" tooltips="1" connect="1" arrows="1" fold="1" page="1" pageScale="1" pageWidth="850" pageHeight="1100" math="0" shadow="0">
            <root>
                <mxCell id="t7836QHO5rXHUrQo-qv1-0"/>
                <mxCell id="t7836QHO5rXHUrQo-qv1-1" parent="t7836QHO5rXHUrQo-qv1-0"/>
                <mxCell id="VMQWdJbAX-PXfTpBh75P-1" value="" style="rounded=0;whiteSpace=wrap;html=1;fillColor=none;dashed=1;" vertex="1" parent="t7836QHO5rXHUrQo-qv1-1">
                    <mxGeometry x="10" y="420" width="830" height="570" as="geometry"/>
                </mxCell>
                <mxCell id="VMQWdJbAX-PXfTpBh75P-10" style="edgeStyle=none;html=1;" edge="1" parent="t7836QHO5rXHUrQo-qv1-1" source="VMQWdJbAX-PXfTpBh75P-11" target="VMQWdJbAX-PXfTpBh75P-15">
                    <mxGeometry relative="1" as="geometry"/>
                </mxCell>
                <mxCell id="VMQWdJbAX-PXfTpBh75P-11" value="Docker" style="rounded=0;whiteSpace=wrap;html=1;fillColor=default;" vertex="1" parent="t7836QHO5rXHUrQo-qv1-1">
                    <mxGeometry x="170" y="400" width="120" height="60" as="geometry"/>
                </mxCell>
                <mxCell id="VMQWdJbAX-PXfTpBh75P-12" value="Proxy" style="edgeStyle=none;html=1;" edge="1" parent="t7836QHO5rXHUrQo-qv1-1" source="VMQWdJbAX-PXfTpBh75P-15" target="VMQWdJbAX-PXfTpBh75P-20">
                    <mxGeometry relative="1" as="geometry"/>
                </mxCell>
                <mxCell id="VMQWdJbAX-PXfTpBh75P-13" value="Proxy" style="edgeStyle=none;html=1;" edge="1" parent="t7836QHO5rXHUrQo-qv1-1" source="VMQWdJbAX-PXfTpBh75P-15" target="VMQWdJbAX-PXfTpBh75P-19">
                    <mxGeometry relative="1" as="geometry"/>
                </mxCell>
                <mxCell id="VMQWdJbAX-PXfTpBh75P-14" value="Auth" style="edgeStyle=none;html=1;" edge="1" parent="t7836QHO5rXHUrQo-qv1-1" source="VMQWdJbAX-PXfTpBh75P-15" target="VMQWdJbAX-PXfTpBh75P-38">
                    <mxGeometry relative="1" as="geometry"/>
                </mxCell>
                <mxCell id="5veo_Qx64fmP74sH4Aso-0" value="Proxy" style="edgeStyle=none;html=1;" edge="1" parent="t7836QHO5rXHUrQo-qv1-1" source="VMQWdJbAX-PXfTpBh75P-15" target="VMQWdJbAX-PXfTpBh75P-35">
                    <mxGeometry relative="1" as="geometry"/>
                </mxCell>
                <mxCell id="5veo_Qx64fmP74sH4Aso-1" value="" style="edgeStyle=none;html=1;" edge="1" parent="t7836QHO5rXHUrQo-qv1-1" source="VMQWdJbAX-PXfTpBh75P-15" target="VMQWdJbAX-PXfTpBh75P-17">
                    <mxGeometry relative="1" as="geometry"/>
                </mxCell>
                <mxCell id="VMQWdJbAX-PXfTpBh75P-15" value="Traefik" style="rounded=0;whiteSpace=wrap;html=1;fillColor=default;" vertex="1" parent="t7836QHO5rXHUrQo-qv1-1">
                    <mxGeometry x="170" y="520" width="120" height="60" as="geometry"/>
                </mxCell>
                <mxCell id="VMQWdJbAX-PXfTpBh75P-16" value="" style="edgeStyle=none;html=1;" edge="1" parent="t7836QHO5rXHUrQo-qv1-1" source="VMQWdJbAX-PXfTpBh75P-17" target="VMQWdJbAX-PXfTpBh75P-28">
                    <mxGeometry relative="1" as="geometry"/>
                </mxCell>
                <mxCell id="VMQWdJbAX-PXfTpBh75P-17" value="Transmission" style="rounded=0;whiteSpace=wrap;html=1;fillColor=default;" vertex="1" parent="t7836QHO5rXHUrQo-qv1-1">
                    <mxGeometry x="425" y="520" width="120" height="60" as="geometry"/>
                </mxCell>
                <mxCell id="VMQWdJbAX-PXfTpBh75P-18" style="edgeStyle=none;html=1;" edge="1" parent="t7836QHO5rXHUrQo-qv1-1" source="VMQWdJbAX-PXfTpBh75P-19" target="VMQWdJbAX-PXfTpBh75P-28">
                    <mxGeometry relative="1" as="geometry"/>
                </mxCell>
                <mxCell id="VMQWdJbAX-PXfTpBh75P-19" value="Proxy Browser" style="rounded=0;whiteSpace=wrap;html=1;fillColor=default;" vertex="1" parent="t7836QHO5rXHUrQo-qv1-1">
                    <mxGeometry x="430" y="650" width="120" height="60" as="geometry"/>
                </mxCell>
                <mxCell id="VMQWdJbAX-PXfTpBh75P-20" value="Nginx" style="rounded=0;whiteSpace=wrap;html=1;fillColor=default;" vertex="1" parent="t7836QHO5rXHUrQo-qv1-1">
                    <mxGeometry x="60" y="690" width="120" height="60" as="geometry"/>
                </mxCell>
                <mxCell id="VMQWdJbAX-PXfTpBh75P-21" style="edgeStyle=none;html=1;" edge="1" parent="t7836QHO5rXHUrQo-qv1-1" source="VMQWdJbAX-PXfTpBh75P-22" target="VMQWdJbAX-PXfTpBh75P-20">
                    <mxGeometry relative="1" as="geometry"/>
                </mxCell>
                <mxCell id="VMQWdJbAX-PXfTpBh75P-22" value="https://localhost:5443/" style="rounded=0;whiteSpace=wrap;html=1;fillColor=default;" vertex="1" parent="t7836QHO5rXHUrQo-qv1-1">
                    <mxGeometry x="-170" y="690" width="120" height="60" as="geometry"/>
                </mxCell>
                <mxCell id="VMQWdJbAX-PXfTpBh75P-23" style="edgeStyle=none;html=1;" edge="1" parent="t7836QHO5rXHUrQo-qv1-1" source="VMQWdJbAX-PXfTpBh75P-24" target="VMQWdJbAX-PXfTpBh75P-15">
                    <mxGeometry relative="1" as="geometry"/>
                </mxCell>
                <mxCell id="VMQWdJbAX-PXfTpBh75P-24" value="https://localhost:5880/" style="rounded=0;whiteSpace=wrap;html=1;fillColor=default;" vertex="1" parent="t7836QHO5rXHUrQo-qv1-1">
                    <mxGeometry x="-190" y="520" width="120" height="60" as="geometry"/>
                </mxCell>
                <mxCell id="VMQWdJbAX-PXfTpBh75P-25" style="edgeStyle=none;html=1;" edge="1" parent="t7836QHO5rXHUrQo-qv1-1" source="VMQWdJbAX-PXfTpBh75P-26" target="VMQWdJbAX-PXfTpBh75P-19">
                    <mxGeometry relative="1" as="geometry"/>
                </mxCell>
                <mxCell id="VMQWdJbAX-PXfTpBh75P-26" value="https://localhost:5443/" style="rounded=0;whiteSpace=wrap;html=1;fillColor=default;" vertex="1" parent="t7836QHO5rXHUrQo-qv1-1">
                    <mxGeometry x="900" y="700" width="120" height="60" as="geometry"/>
                </mxCell>
                <mxCell id="VMQWdJbAX-PXfTpBh75P-27" style="edgeStyle=none;html=1;" edge="1" parent="t7836QHO5rXHUrQo-qv1-1" source="VMQWdJbAX-PXfTpBh75P-28" target="VMQWdJbAX-PXfTpBh75P-29">
                    <mxGeometry relative="1" as="geometry"/>
                </mxCell>
                <mxCell id="VMQWdJbAX-PXfTpBh75P-28" value="Privoxy" style="rounded=0;whiteSpace=wrap;html=1;fillColor=default;" vertex="1" parent="t7836QHO5rXHUrQo-qv1-1">
                    <mxGeometry x="630" y="570" width="120" height="60" as="geometry"/>
                </mxCell>
                <mxCell id="VMQWdJbAX-PXfTpBh75P-29" value="ExpressVPN" style="rounded=0;whiteSpace=wrap;html=1;" vertex="1" parent="t7836QHO5rXHUrQo-qv1-1">
                    <mxGeometry x="880" y="560" width="120" height="60" as="geometry"/>
                </mxCell>
                <mxCell id="VMQWdJbAX-PXfTpBh75P-30" style="edgeStyle=none;html=1;" edge="1" parent="t7836QHO5rXHUrQo-qv1-1" source="VMQWdJbAX-PXfTpBh75P-31" target="VMQWdJbAX-PXfTpBh75P-17">
                    <mxGeometry relative="1" as="geometry"/>
                </mxCell>
                <mxCell id="VMQWdJbAX-PXfTpBh75P-31" value="https://localhost:5191/" style="rounded=0;whiteSpace=wrap;html=1;fillColor=default;" vertex="1" parent="t7836QHO5rXHUrQo-qv1-1">
                    <mxGeometry x="430" y="330" width="120" height="60" as="geometry"/>
                </mxCell>
                <mxCell id="VMQWdJbAX-PXfTpBh75P-32" style="edgeStyle=none;html=1;" edge="1" parent="t7836QHO5rXHUrQo-qv1-1" source="VMQWdJbAX-PXfTpBh75P-33" target="VMQWdJbAX-PXfTpBh75P-35">
                    <mxGeometry relative="1" as="geometry"/>
                </mxCell>
                <mxCell id="VMQWdJbAX-PXfTpBh75P-33" value="https://localhost:5780/" style="rounded=0;whiteSpace=wrap;html=1;fillColor=default;" vertex="1" parent="t7836QHO5rXHUrQo-qv1-1">
                    <mxGeometry x="50" y="1050" width="120" height="60" as="geometry"/>
                </mxCell>
                <mxCell id="VMQWdJbAX-PXfTpBh75P-34" style="edgeStyle=none;html=1;" edge="1" parent="t7836QHO5rXHUrQo-qv1-1" source="VMQWdJbAX-PXfTpBh75P-35" target="VMQWdJbAX-PXfTpBh75P-36">
                    <mxGeometry relative="1" as="geometry"/>
                </mxCell>
                <mxCell id="VMQWdJbAX-PXfTpBh75P-35" value="Postgre UI" style="rounded=0;whiteSpace=wrap;html=1;fillColor=default;" vertex="1" parent="t7836QHO5rXHUrQo-qv1-1">
                    <mxGeometry x="150" y="810" width="120" height="60" as="geometry"/>
                </mxCell>
                <mxCell id="VMQWdJbAX-PXfTpBh75P-36" value="Postgres" style="rounded=0;whiteSpace=wrap;html=1;fillColor=default;" vertex="1" parent="t7836QHO5rXHUrQo-qv1-1">
                    <mxGeometry x="305" y="900" width="120" height="60" as="geometry"/>
                </mxCell>
                <mxCell id="VMQWdJbAX-PXfTpBh75P-37" style="edgeStyle=none;html=1;" edge="1" parent="t7836QHO5rXHUrQo-qv1-1" source="VMQWdJbAX-PXfTpBh75P-38" target="VMQWdJbAX-PXfTpBh75P-36">
                    <mxGeometry relative="1" as="geometry"/>
                </mxCell>
                <mxCell id="VMQWdJbAX-PXfTpBh75P-38" value="Keycloak" style="rounded=0;whiteSpace=wrap;html=1;fillColor=default;" vertex="1" parent="t7836QHO5rXHUrQo-qv1-1">
                    <mxGeometry x="430" y="790" width="120" height="60" as="geometry"/>
                </mxCell>
                <mxCell id="VMQWdJbAX-PXfTpBh75P-39" style="edgeStyle=none;html=1;" edge="1" parent="t7836QHO5rXHUrQo-qv1-1" source="VMQWdJbAX-PXfTpBh75P-40" target="VMQWdJbAX-PXfTpBh75P-38">
                    <mxGeometry relative="1" as="geometry"/>
                </mxCell>
                <mxCell id="VMQWdJbAX-PXfTpBh75P-40" value="https://localhost:5680/" style="rounded=0;whiteSpace=wrap;html=1;fillColor=default;" vertex="1" parent="t7836QHO5rXHUrQo-qv1-1">
                    <mxGeometry x="890" y="860" width="120" height="60" as="geometry"/>
                </mxCell>
            </root>
        </mxGraphModel>
    </diagram>
    <diagram id="f326QEajmO0qbaA_XErh" name="Synology">
        <mxGraphModel dx="2008" dy="755" grid="1" gridSize="10" guides="1" tooltips="1" connect="1" arrows="1" fold="1" page="1" pageScale="1" pageWidth="850" pageHeight="1100" math="0" shadow="0">
            <root>
                <mxCell id="0"/>
                <mxCell id="1" parent="0"/>
                <mxCell id="10" value="" style="rounded=0;whiteSpace=wrap;html=1;fillColor=none;dashed=1;" vertex="1" parent="1">
                    <mxGeometry x="90" y="340" width="790" height="600" as="geometry"/>
                </mxCell>
                <mxCell id="12" value="" style="rounded=0;whiteSpace=wrap;html=1;fillColor=none;dashed=1;" vertex="1" parent="1">
                    <mxGeometry x="120" y="420" width="720" height="440" as="geometry"/>
                </mxCell>
                <mxCell id="9" style="edgeStyle=none;html=1;" edge="1" parent="1" source="2" target="4">
                    <mxGeometry relative="1" as="geometry"/>
                </mxCell>
                <mxCell id="2" value="Router" style="rounded=0;whiteSpace=wrap;html=1;" vertex="1" parent="1">
                    <mxGeometry x="170" y="170" width="120" height="60" as="geometry"/>
                </mxCell>
                <mxCell id="13" style="edgeStyle=none;html=1;" edge="1" parent="1" source="4" target="11">
                    <mxGeometry relative="1" as="geometry"/>
                </mxCell>
                <mxCell id="4" value="Synology" style="rounded=0;whiteSpace=wrap;html=1;" vertex="1" parent="1">
                    <mxGeometry x="170" y="310" width="120" height="60" as="geometry"/>
                </mxCell>
                <mxCell id="5" value="" style="endArrow=none;html=1;" edge="1" parent="1">
                    <mxGeometry width="50" height="50" relative="1" as="geometry">
                        <mxPoint x="50" y="120" as="sourcePoint"/>
                        <mxPoint x="700" y="120" as="targetPoint"/>
                    </mxGeometry>
                </mxCell>
                <mxCell id="6" value="Public" style="text;html=1;strokeColor=none;fillColor=none;align=center;verticalAlign=middle;whiteSpace=wrap;rounded=0;" vertex="1" parent="1">
                    <mxGeometry x="510" y="30" width="60" height="30" as="geometry"/>
                </mxCell>
                <mxCell id="8" style="edgeStyle=none;html=1;" edge="1" parent="1" source="7" target="2">
                    <mxGeometry relative="1" as="geometry"/>
                </mxCell>
                <mxCell id="7" value="ISP" style="rounded=0;whiteSpace=wrap;html=1;" vertex="1" parent="1">
                    <mxGeometry x="170" y="30" width="120" height="60" as="geometry"/>
                </mxCell>
                <mxCell id="18" style="edgeStyle=none;html=1;" edge="1" parent="1" source="11" target="14">
                    <mxGeometry relative="1" as="geometry"/>
                </mxCell>
                <mxCell id="11" value="Docker" style="rounded=0;whiteSpace=wrap;html=1;fillColor=default;" vertex="1" parent="1">
                    <mxGeometry x="170" y="400" width="120" height="60" as="geometry"/>
                </mxCell>
                <mxCell id="19" style="edgeStyle=none;html=1;" edge="1" parent="1" source="14" target="17">
                    <mxGeometry relative="1" as="geometry"/>
                </mxCell>
                <mxCell id="26" style="edgeStyle=none;html=1;" edge="1" parent="1" source="14" target="16">
                    <mxGeometry relative="1" as="geometry"/>
                </mxCell>
                <mxCell id="41" style="edgeStyle=none;html=1;" edge="1" parent="1" source="14" target="39">
                    <mxGeometry relative="1" as="geometry"/>
                </mxCell>
                <mxCell id="14" value="Traefik" style="rounded=0;whiteSpace=wrap;html=1;fillColor=default;" vertex="1" parent="1">
                    <mxGeometry x="170" y="520" width="120" height="60" as="geometry"/>
                </mxCell>
                <mxCell id="31" value="" style="edgeStyle=none;html=1;" edge="1" parent="1" source="15" target="27">
                    <mxGeometry relative="1" as="geometry"/>
                </mxCell>
                <mxCell id="15" value="Transmission" style="rounded=0;whiteSpace=wrap;html=1;fillColor=default;" vertex="1" parent="1">
                    <mxGeometry x="670" y="440" width="120" height="60" as="geometry"/>
                </mxCell>
                <mxCell id="30" style="edgeStyle=none;html=1;" edge="1" parent="1" source="16" target="27">
                    <mxGeometry relative="1" as="geometry"/>
                </mxCell>
                <mxCell id="16" value="Proxy Browser" style="rounded=0;whiteSpace=wrap;html=1;fillColor=default;" vertex="1" parent="1">
                    <mxGeometry x="580" y="560" width="120" height="60" as="geometry"/>
                </mxCell>
                <mxCell id="17" value="Nginx" style="rounded=0;whiteSpace=wrap;html=1;fillColor=default;" vertex="1" parent="1">
                    <mxGeometry x="170" y="640" width="120" height="60" as="geometry"/>
                </mxCell>
                <mxCell id="21" style="edgeStyle=none;html=1;" edge="1" parent="1" source="20" target="17">
                    <mxGeometry relative="1" as="geometry"/>
                </mxCell>
                <mxCell id="20" value="https://synology:5443/" style="rounded=0;whiteSpace=wrap;html=1;fillColor=default;" vertex="1" parent="1">
                    <mxGeometry x="-100" y="640" width="120" height="60" as="geometry"/>
                </mxCell>
                <mxCell id="23" style="edgeStyle=none;html=1;" edge="1" parent="1" source="22" target="14">
                    <mxGeometry relative="1" as="geometry"/>
                </mxCell>
                <mxCell id="22" value="https://synology:5880/" style="rounded=0;whiteSpace=wrap;html=1;fillColor=default;" vertex="1" parent="1">
                    <mxGeometry x="-100" y="520" width="120" height="60" as="geometry"/>
                </mxCell>
                <mxCell id="25" style="edgeStyle=none;html=1;" edge="1" parent="1" source="24" target="16">
                    <mxGeometry relative="1" as="geometry"/>
                </mxCell>
                <mxCell id="24" value="https://synology:5443/" style="rounded=0;whiteSpace=wrap;html=1;fillColor=default;" vertex="1" parent="1">
                    <mxGeometry x="960" y="560" width="120" height="60" as="geometry"/>
                </mxCell>
                <mxCell id="29" style="edgeStyle=none;html=1;dashed=1;" edge="1" parent="1" source="27" target="28">
                    <mxGeometry relative="1" as="geometry"/>
                </mxCell>
                <mxCell id="27" value="Privoxy" style="rounded=0;whiteSpace=wrap;html=1;fillColor=default;" vertex="1" parent="1">
                    <mxGeometry x="460" y="440" width="120" height="60" as="geometry"/>
                </mxCell>
                <mxCell id="28" value="ExpressVPN" style="rounded=0;whiteSpace=wrap;html=1;" vertex="1" parent="1">
                    <mxGeometry x="365" y="30" width="120" height="60" as="geometry"/>
                </mxCell>
                <mxCell id="33" style="edgeStyle=none;html=1;" edge="1" parent="1" source="32" target="15">
                    <mxGeometry relative="1" as="geometry"/>
                </mxCell>
                <mxCell id="32" value="https://synology:5191/" style="rounded=0;whiteSpace=wrap;html=1;fillColor=default;" vertex="1" parent="1">
                    <mxGeometry x="960" y="440" width="120" height="60" as="geometry"/>
                </mxCell>
                <mxCell id="36" style="edgeStyle=none;html=1;" edge="1" parent="1" source="34" target="35">
                    <mxGeometry relative="1" as="geometry"/>
                </mxCell>
                <mxCell id="34" value="https://synology:5780/" style="rounded=0;whiteSpace=wrap;html=1;fillColor=default;" vertex="1" parent="1">
                    <mxGeometry x="-100" y="760" width="120" height="60" as="geometry"/>
                </mxCell>
                <mxCell id="38" style="edgeStyle=none;html=1;" edge="1" parent="1" source="35" target="37">
                    <mxGeometry relative="1" as="geometry"/>
                </mxCell>
                <mxCell id="35" value="Postgre UI" style="rounded=0;whiteSpace=wrap;html=1;fillColor=default;" vertex="1" parent="1">
                    <mxGeometry x="170" y="760" width="120" height="60" as="geometry"/>
                </mxCell>
                <mxCell id="37" value="Postgres" style="rounded=0;whiteSpace=wrap;html=1;fillColor=default;" vertex="1" parent="1">
                    <mxGeometry x="380" y="760" width="120" height="60" as="geometry"/>
                </mxCell>
                <mxCell id="42" style="edgeStyle=none;html=1;" edge="1" parent="1" source="39" target="37">
                    <mxGeometry relative="1" as="geometry"/>
                </mxCell>
                <mxCell id="39" value="Keycloak" style="rounded=0;whiteSpace=wrap;html=1;fillColor=default;" vertex="1" parent="1">
                    <mxGeometry x="380" y="640" width="120" height="60" as="geometry"/>
                </mxCell>
                <mxCell id="44" style="edgeStyle=none;html=1;" edge="1" parent="1" source="43" target="39">
                    <mxGeometry relative="1" as="geometry"/>
                </mxCell>
                <mxCell id="43" value="https://synology:5680/" style="rounded=0;whiteSpace=wrap;html=1;fillColor=default;" vertex="1" parent="1">
                    <mxGeometry x="950" y="700" width="120" height="60" as="geometry"/>
                </mxCell>
                <mxCell id="45" value="LAN" style="text;html=1;strokeColor=none;fillColor=none;align=center;verticalAlign=middle;whiteSpace=wrap;rounded=0;" vertex="1" parent="1">
                    <mxGeometry x="510" y="150" width="60" height="30" as="geometry"/>
                </mxCell>
            </root>
        </mxGraphModel>
    </diagram>
</mxfile>
